<svg id="Capa_1" enable-background="new 0 0 497 497" viewBox="0 0 497 497" xmlns="http://www.w3.org/2000/svg"><g><path d="m317.292 284.069h159.187v109.372h-159.187z" fill="#ffbd86"/><path d="m317.292 179.158h159.187v104.912h-159.187z" fill="#f6a96c"/><path d="m470.117 74.246h-54.313l-13.929 4.918-13.929-4.918h-70.654v104.912h159.187v-98.55c0-3.514-2.849-6.362-6.362-6.362z" fill="#ffbd86"/><path d="m455.673 284.069h20.806v104.912h-20.806z" fill="#f6a96c"/><path d="m493.043 396.987-59.233 19.427c-2.431.797-4.973 1.203-7.531 1.203h-105.937l3.937-28.636h102.751c2.587 0 5.157-.415 7.613-1.23l54.798-18.189c3.721-1.235 7.559 1.535 7.559 5.456v16.507c0 2.484-1.596 4.687-3.957 5.462z" fill="#537983"/><path d="m489.441 369.562-19.418 6.445c3.339-.425 6.457 2.164 6.457 5.697v16.507c0 2.484-1.596 4.688-3.957 5.462l-.231.12 20.751-6.806c2.361-.774 3.957-2.978 3.957-5.462v-16.507c0-3.921-3.838-6.691-7.559-5.456z" fill="#476666"/><path d="m455.673 179.157h20.806v104.912h-20.806z" fill="#ea9b58"/><path d="m470.117 74.246h-20.806c3.514 0 6.362 2.849 6.362 6.362v98.549h20.806v-98.549c0-3.514-2.849-6.362-6.362-6.362z" fill="#f6a96c"/><g fill="#eaf6ff"><path d="m410.445 111.153h-17.14c-2.959 0-5.358-2.399-5.358-5.358v-31.549h27.857v31.549c-.001 2.959-2.4 5.358-5.359 5.358z"/><path d="m410.445 216.065h-17.14c-2.959 0-5.358-2.399-5.358-5.358v-31.549h27.857v31.549c-.001 2.958-2.4 5.358-5.359 5.358z"/><path d="m410.445 320.976h-17.14c-2.959 0-5.358-2.399-5.358-5.358v-31.549h27.857v31.549c-.001 2.959-2.4 5.358-5.359 5.358z"/></g><g><path d="m301.83 193.853h-46.402c-4.142 0-7.5-3.358-7.5-7.5s3.358-7.5 7.5-7.5h46.402c4.142 0 7.5 3.358 7.5 7.5s-3.358 7.5-7.5 7.5z" fill="#537983"/></g><path d="m294.83 297.565v120.052h-271.989c-12.615 0-22.841-10.225-22.841-22.841v-53.652l5.955-14.279-5.955-11.188v-19.303c0-8.79 5.036-16.8 12.964-20.595l42.39-20.318c4.626-2.215 7.959-6.451 9.036-11.457l19.426-97.601c.903-4.226 4.646-7.241 8.974-7.241h157.458c5.067 0 9.18 4.103 9.18 9.169v123.427c0 6.215 3.672 11.846 9.354 14.359z" fill="#ffd15b"/><path d="m268.782 286.098c-5.682-2.513-9.354-8.144-9.354-14.359v-123.427c0-5.067-4.113-9.169-9.18-9.169h-16.928c5.067 0 9.18 4.103 9.18 9.169v123.427c0 6.215 3.672 11.846 9.354 14.359l26.048 11.467v120.052h24.069l-7.141-120.052z" fill="#ffc344"/><g><path d="m303.268 361.042c-.984 0-1.983-.194-2.945-.605l-51.744-22.12c-3.809-1.628-5.576-6.036-3.948-9.845 1.629-3.808 6.036-5.575 9.845-3.948l51.744 22.12c3.809 1.628 5.576 6.036 3.948 9.845-1.217 2.845-3.988 4.553-6.9 4.553z" fill="#7ca1b1"/></g><path d="m277.902 350.851 20.622 8.816-.996-16.74-19.626-8.39z" fill="#537983"/><path d="m226.49 180.2v67c0 4.55-3.69 8.25-8.25 8.25h-33.92l-6.55-4.135-8.68 4.135h-63.16c-5.16 0-9.05-4.69-8.1-9.77l11.18-66.99c.73-3.91 4.14-6.74 8.11-6.74h66.62l6.877 2.795 8.738-2.795h18.885c4.56 0 8.25 3.7 8.25 8.25z" fill="#60b7ff"/><path d="m218.243 171.955h-18.888c4.555 0 8.248 3.693 8.248 8.248v66.997c0 4.555-3.693 8.248-8.248 8.248h18.888c4.555 0 8.248-3.693 8.248-8.248v-66.997c0-4.556-3.693-8.248-8.248-8.248z" fill="#26a6fe"/><circle cx="83.518" cy="417.621" fill="#537983" r="46.969"/><path d="m83.518 370.652c-2.974 0-5.88.289-8.701.818 21.781 4.082 38.268 23.186 38.268 46.151s-16.487 42.069-38.268 46.151c2.821.529 5.727.818 8.701.818 25.94 0 46.969-21.029 46.969-46.969s-21.029-46.969-46.969-46.969z" fill="#476666"/><circle cx="204.559" cy="417.621" fill="#537983" r="46.969"/><path d="m204.559 370.652c-2.94 0-5.813.283-8.604.8 21.829 4.043 38.365 23.169 38.365 46.169s-16.536 42.126-38.365 46.169c2.791.517 5.663.8 8.604.8 25.94 0 46.969-21.029 46.969-46.969s-21.029-46.969-46.969-46.969z" fill="#476666"/><circle cx="204.559" cy="417.621" fill="#7ca1b1" r="21.932"/><circle cx="83.518" cy="417.621" fill="#7ca1b1" r="21.932"/><path d="m324.28 417.617h-29.45v-380.36c0-2.677 2.17-4.847 4.847-4.847h19.757c2.677 0 4.847 2.17 4.847 4.847v380.36z" fill="#476666"/><path d="m61.59 328.391c0 7.032-5.701 12.733-12.733 12.733h-48.857v-25.467h48.857c7.032 0 12.733 5.701 12.733 12.734z" fill="#d83131"/><path d="m48.857 315.657h-19.731c7.032 0 12.733 5.701 12.733 12.733s-5.701 12.734-12.733 12.734h19.731c7.032 0 12.733-5.701 12.733-12.734s-5.701-12.733-12.733-12.733z" fill="#ca2c2c"/><g><path d="m130.487 295.3h-32.804c-4.142 0-7.5-3.358-7.5-7.5s3.358-7.5 7.5-7.5h32.804c4.142 0 7.5 3.358 7.5 7.5s-3.358 7.5-7.5 7.5z" fill="#537983"/></g><g><path d="m198.98 171.95-14.66 83.5h-15.23l14.65-83.5z" fill="#eaf6ff"/></g></g></svg>